font.ufo
<glyph name="one" format="1" >
	<unicode hex="000031"/>
	<advance width="500"/>
	<outline>
		<contour>
			<point x="85" y="601" type="line"/>
			<point x="85" y="560" type="line"/>
			<point x="217" y="571" type="line"/>
			<point x="217" y="211" type="line"/>
			<point x="217" y="161" />
			<point x="216" y="110" />
			<point x="215" y="60" type="curve"/>
			<point x="74" y="36" type="line"/>
			<point x="74" y="0" type="line"/>
			<point x="445" y="0" type="line"/>
			<point x="445" y="36" type="line"/>
			<point x="303" y="60" type="line"/>
			<point x="302" y="110" />
			<point x="301" y="161" />
			<point x="301" y="211" type="curve"/>
			<point x="301" y="501" type="line"/>
			<point x="305" y="644" type="line"/>
			<point x="291" y="654" type="line"/>
		</contour>
	</outline>
</glyph>
<glyph name="two" format="1" >
	<unicode hex="000032"/>
	<advance width="500"/>
	<outline>
		<contour>
			<point x="49" y="0" type="line"/>
			<point x="460" y="0" type="line"/>
			<point x="460" y="82" type="line"/>
			<point x="125" y="82" type="line"/>
			<point x="166" y="120" />
			<point x="206" y="158" />
			<point x="233" y="185" type="curve"/>
			<point x="387" y="333" />
			<point x="431" y="401" />
			<point x="431" y="489" type="curve"/>
			<point x="431" y="589" />
			<point x="375" y="659" />
			<point x="246" y="659" type="curve"/>
			<point x="145" y="659" />
			<point x="55" y="610" />
			<point x="44" y="504" type="curve"/>
			<point x="55" y="484" />
			<point x="73" y="472" />
			<point x="95" y="472" type="curve"/>
			<point x="123" y="472" />
			<point x="140" y="491" />
			<point x="153" y="540" type="curve"/>
			<point x="172" y="609" type="line"/>
			<point x="191" y="613" />
			<point x="208" y="614" />
			<point x="221" y="614" type="curve"/>
			<point x="294" y="614" />
			<point x="341" y="562" />
			<point x="341" y="480" type="curve"/>
			<point x="341" y="402" />
			<point x="296" y="320" />
			<point x="196" y="215" type="curve"/>
			<point x="153" y="170" />
			<point x="102" y="117" />
			<point x="49" y="65" type="curve"/>
		</contour>
	</outline>
</glyph>
<glyph name="three" format="1" >
	<unicode hex="000033"/>
	<advance width="500"/>
	<outline>
		<contour>
			<point x="170" y="365" type="line"/>
			<point x="170" y="315" type="line"/>
			<point x="218" y="315" type="line"/>
			<point x="320" y="315" />
			<point x="371" y="263" />
			<point x="371" y="176" type="curve"/>
			<point x="371" y="86" />
			<point x="321" y="32" />
			<point x="223" y="32" type="curve"/>
			<point x="208" y="32" />
			<point x="189" y="33" />
			<point x="167" y="38" type="curve"/>
			<point x="154" y="90" type="line"/>
			<point x="140" y="140" />
			<point x="129" y="162" />
			<point x="95" y="162" type="curve"/>
			<point x="73" y="162" />
			<point x="56" y="152" />
			<point x="44" y="129" type="curve"/>
			<point x="62" y="29" />
			<point x="138" y="-13" />
			<point x="236" y="-13" type="curve"/>
			<point x="371" y="-13" />
			<point x="460" y="70" />
			<point x="460" y="178" type="curve"/>
			<point x="460" y="261" />
			<point x="412" y="321" />
			<point x="309" y="341" type="curve"/>
			<point x="392" y="370" />
			<point x="440" y="430" />
			<point x="440" y="502" type="curve"/>
			<point x="440" y="595" />
			<point x="365" y="659" />
			<point x="248" y="659" type="curve"/>
			<point x="156" y="659" />
			<point x="80" y="617" />
			<point x="62" y="531" type="curve"/>
			<point x="71" y="503" />
			<point x="90" y="494" />
			<point x="112" y="494" type="curve"/>
			<point x="147" y="494" />
			<point x="160" y="515" />
			<point x="171" y="558" type="curve"/>
			<point x="185" y="610" type="line"/>
			<point x="203" y="613" />
			<point x="218" y="614" />
			<point x="231" y="614" type="curve"/>
			<point x="309" y="614" />
			<point x="353" y="572" />
			<point x="353" y="499" type="curve"/>
			<point x="353" y="414" />
			<point x="300" y="365" />
			<point x="210" y="365" type="curve"/>
		</contour>
	</outline>
</glyph>
<glyph name="four" format="1" >
	<unicode hex="000034"/>
	<advance width="500"/>
	<outline>
		<contour>
			<point x="484" y="193" type="line"/>
			<point x="484" y="256" type="line"/>
			<point x="379" y="256" type="line"/>
			<point x="379" y="654" type="line"/>
			<point x="321" y="654" type="line"/>
			<point x="24" y="246" type="line"/>
			<point x="24" y="193" type="line"/>
			<point x="296" y="193" type="line"/>
			<point x="296" y="0" type="line"/>
			<point x="379" y="0" type="line"/>
			<point x="379" y="193" type="line"/>
		</contour>
		<contour>
			<point x="296" y="256" type="line"/>
			<point x="85" y="256" type="line"/>
			<point x="296" y="549" type="line"/>
		</contour>
	</outline>
</glyph>
<glyph name="five" format="1" >
	<unicode hex="000035"/>
	<advance width="500"/>
	<outline>
		<contour>
			<point x="225" y="-13" type="curve"/>
			<point x="365" y="-13" />
			<point x="458" y="73" />
			<point x="458" y="201" type="curve"/>
			<point x="458" y="334" />
			<point x="369" y="406" />
			<point x="239" y="406" type="curve"/>
			<point x="205" y="406" />
			<point x="175" y="402" />
			<point x="145" y="394" type="curve"/>
			<point x="157" y="564" type="line"/>
			<point x="440" y="564" type="line"/>
			<point x="440" y="646" type="line"/>
			<point x="113" y="646" type="line"/>
			<point x="92" y="342" type="line"/>
			<point x="120" y="334" type="line"/>
			<point x="151" y="341" />
			<point x="183" y="345" />
			<point x="212" y="345" type="curve"/>
			<point x="308" y="345" />
			<point x="368" y="291" />
			<point x="368" y="191" type="curve"/>
			<point x="368" y="95" />
			<point x="316" y="32" />
			<point x="218" y="32" type="curve"/>
			<point x="200" y="32" />
			<point x="181" y="34" />
			<point x="161" y="40" type="curve"/>
			<point x="147" y="94" type="line"/>
			<point x="133" y="147" />
			<point x="119" y="162" />
			<point x="89" y="162" type="curve"/>
			<point x="66" y="162" />
			<point x="47" y="151" />
			<point x="38" y="128" type="curve"/>
			<point x="59" y="34" />
			<point x="123" y="-13" />
		</contour>
	</outline>
</glyph>
<glyph name="six" format="1" >
	<unicode hex="000036"/>
	<advance width="500"/>
	<outline>
		<contour>
			<point x="257" y="-13" type="curve"/>
			<point x="373" y="-13" />
			<point x="461" y="59" />
			<point x="461" y="202" type="curve"/>
			<point x="461" y="322" />
			<point x="387" y="397" />
			<point x="278" y="397" type="curve"/>
			<point x="226" y="397" />
			<point x="174" y="374" />
			<point x="132" y="331" type="curve"/>
			<point x="146" y="486" />
			<point x="236" y="580" />
			<point x="429" y="627" type="curve"/>
			<point x="423" y="659" type="line"/>
			<point x="174" y="631" />
			<point x="40" y="467" />
			<point x="40" y="271" type="curve"/>
			<point x="40" y="91" />
			<point x="122" y="-13" />
		</contour>
		<contour>
			<point x="259" y="32" type="curve"/>
			<point x="179" y="32" />
			<point x="130" y="112" />
			<point x="130" y="285" type="curve"/>
			<point x="130" y="290" type="line"/>
			<point x="168" y="324" />
			<point x="215" y="336" />
			<point x="256" y="336" type="curve"/>
			<point x="325" y="336" />
			<point x="372" y="292" />
			<point x="372" y="187" type="curve"/>
			<point x="372" y="83" />
			<point x="328" y="32" />
		</contour>
	</outline>
</glyph>
<glyph name="seven" format="1" >
	<unicode hex="000037"/>
	<advance width="500"/>
	<outline>
		<contour>
			<point x="133" y="10" type="line"/>
			<point x="143" y="0" type="line"/>
			<point x="226" y="0" type="line"/>
			<point x="464" y="595" type="line"/>
			<point x="464" y="646" type="line"/>
			<point x="51" y="646" type="line"/>
			<point x="51" y="564" type="line"/>
			<point x="397" y="564" type="line"/>
		</contour>
	</outline>
</glyph>
<glyph name="eight" format="1" >
	<unicode hex="000038"/>
	<advance width="500"/>
	<outline>
		<contour>
			<point x="44" y="149" type="curve"/>
			<point x="44" y="42" />
			<point x="130" y="-13" />
			<point x="251" y="-13" type="curve"/>
			<point x="366" y="-13" />
			<point x="455" y="57" />
			<point x="455" y="158" type="curve"/>
			<point x="455" y="246" />
			<point x="406" y="298" />
			<point x="307" y="347" type="curve"/>
			<point x="398" y="400" />
			<point x="425" y="458" />
			<point x="425" y="505" type="curve"/>
			<point x="425" y="595" />
			<point x="358" y="659" />
			<point x="253" y="659" type="curve"/>
			<point x="149" y="659" />
			<point x="66" y="597" />
			<point x="66" y="492" type="curve"/>
			<point x="66" y="423" />
			<point x="101" y="364" />
			<point x="185" y="317" type="curve"/>
			<point x="93" y="271" />
			<point x="44" y="221" />
		</contour>
		<contour>
			<point x="145" y="514" type="curve"/>
			<point x="145" y="575" />
			<point x="194" y="614" />
			<point x="251" y="614" type="curve"/>
			<point x="314" y="614" />
			<point x="350" y="563" />
			<point x="350" y="503" type="curve"/>
			<point x="350" y="448" />
			<point x="329" y="411" />
			<point x="269" y="365" type="curve"/>
			<point x="170" y="415" />
			<point x="145" y="462" />
		</contour>
		<contour>
			<point x="253" y="31" type="curve"/>
			<point x="179" y="31" />
			<point x="127" y="84" />
			<point x="127" y="155" type="curve"/>
			<point x="127" y="221" />
			<point x="159" y="259" />
			<point x="222" y="298" type="curve"/>
			<point x="334" y="246" />
			<point x="371" y="209" />
			<point x="371" y="151" type="curve"/>
			<point x="371" y="84" />
			<point x="324" y="31" />
		</contour>
	</outline>
</glyph>
<glyph name="D" format="1" >
	<unicode hex="000044"/>
	<advance width="710"/>
	<outline>
		<contour>
			<point x="138" y="322" type="line"/>
			<point x="138" y="225" />
			<point x="138" y="137" />
			<point x="136" y="52" type="curve"/>
			<point x="44" y="41" type="line"/>
			<point x="44" y="0" type="line"/>
			<point x="320" y="0" type="line"/>
			<point x="515" y="0" />
			<point x="663" y="118" />
			<point x="663" y="334" type="curve"/>
			<point x="663" y="551" />
			<point x="531" y="669" />
			<point x="339" y="669" type="curve"/>
			<point x="44" y="669" type="line"/>
			<point x="44" y="628" type="line"/>
			<point x="136" y="617" type="line"/>
			<point x="138" y="531" />
			<point x="138" y="445" />
			<point x="138" y="359" type="curve"/>
		</contour>
		<contour>
			<point x="233" y="322" type="curve"/>
			<point x="233" y="359" type="line"/>
			<point x="233" y="448" />
			<point x="233" y="537" />
			<point x="235" y="623" type="curve"/>
			<point x="323" y="623" type="line"/>
			<point x="468" y="623" />
			<point x="554" y="522" />
			<point x="554" y="334" type="curve"/>
			<point x="554" y="152" />
			<point x="468" y="47" />
			<point x="314" y="47" type="curve"/>
			<point x="235" y="47" type="line"/>
			<point x="233" y="135" />
			<point x="233" y="224" />
		</contour>
	</outline>
</glyph>
<glyph name="E" format="1" >
	<unicode hex="000045"/>
	<advance width="603"/>
	<outline>
		<contour>
			<point x="138" y="310" type="line"/>
			<point x="138" y="223" />
			<point x="138" y="136" />
			<point x="136" y="52" type="curve"/>
			<point x="44" y="41" type="line"/>
			<point x="44" y="0" type="line"/>
			<point x="562" y="0" type="line"/>
			<point x="569" y="178" type="line"/>
			<point x="512" y="178" type="line"/>
			<point x="490" y="50" type="line"/>
			<point x="235" y="50" type="line"/>
			<point x="233" y="133" />
			<point x="233" y="218" />
			<point x="233" y="318" type="curve"/>
			<point x="381" y="318" type="line"/>
			<point x="394" y="224" type="line"/>
			<point x="440" y="224" type="line"/>
			<point x="440" y="460" type="line"/>
			<point x="394" y="460" type="line"/>
			<point x="380" y="365" type="line"/>
			<point x="233" y="365" type="line"/>
			<point x="233" y="447" />
			<point x="233" y="534" />
			<point x="235" y="619" type="curve"/>
			<point x="470" y="619" type="line"/>
			<point x="492" y="492" type="line"/>
			<point x="549" y="492" type="line"/>
			<point x="542" y="669" type="line"/>
			<point x="44" y="669" type="line"/>
			<point x="44" y="628" type="line"/>
			<point x="136" y="617" type="line"/>
			<point x="138" y="531" />
			<point x="138" y="445" />
			<point x="138" y="359" type="curve"/>
		</contour>
	</outline>
</glyph>
<glyph name="G" format="1" >
	<unicode hex="000047"/>
	<advance width="682"/>
	<outline>
		<contour>
			<point x="604" y="88" type="line"/>
			<point x="604" y="150" />
			<point x="605" y="212" />
			<point x="606" y="272" type="curve"/>
			<point x="667" y="278" type="line"/>
			<point x="667" y="318" type="line"/>
			<point x="404" y="318" type="line"/>
			<point x="404" y="278" type="line"/>
			<point x="508" y="269" type="line"/>
			<point x="509" y="209" />
			<point x="510" y="148" />
			<point x="510" y="88" type="curve"/>
			<point x="510" y="56" type="line"/>
			<point x="475" y="42" />
			<point x="443" y="36" />
			<point x="403" y="36" type="curve"/>
			<point x="250" y="36" />
			<point x="156" y="144" />
			<point x="156" y="335" type="curve"/>
			<point x="156" y="526" />
			<point x="259" y="634" />
			<point x="397" y="634" type="curve"/>
			<point x="438" y="634" />
			<point x="475" y="625" />
			<point x="511" y="605" type="curve"/>
			<point x="531" y="491" type="line"/>
			<point x="593" y="491" type="line"/>
			<point x="589" y="637" type="line"/>
			<point x="533" y="669" />
			<point x="470" y="684" />
			<point x="388" y="684" type="curve"/>
			<point x="184" y="684" />
			<point x="47" y="536" />
			<point x="47" y="335" type="curve"/>
			<point x="47" y="133" />
			<point x="183" y="-15" />
			<point x="384" y="-15" type="curve"/>
			<point x="467" y="-15" />
			<point x="535" y="8" />
			<point x="604" y="44" type="curve"/>
		</contour>
	</outline>
</glyph>
<glyph name="I" format="1" >
	<unicode hex="000049"/>
	<advance width="371"/>
	<outline>
		<contour>
			<point x="138" y="310" type="line"/>
			<point x="138" y="223" />
			<point x="138" y="136" />
			<point x="136" y="52" type="curve"/>
			<point x="44" y="41" type="line"/>
			<point x="44" y="0" type="line"/>
			<point x="327" y="0" type="line"/>
			<point x="327" y="41" type="line"/>
			<point x="235" y="52" type="line"/>
			<point x="233" y="138" />
			<point x="233" y="224" />
			<point x="233" y="310" type="curve"/>
			<point x="233" y="359" type="line"/>
			<point x="233" y="446" />
			<point x="233" y="533" />
			<point x="235" y="617" type="curve"/>
			<point x="327" y="628" type="line"/>
			<point x="327" y="669" type="line"/>
			<point x="44" y="669" type="line"/>
			<point x="44" y="628" type="line"/>
			<point x="136" y="617" type="line"/>
			<point x="138" y="531" />
			<point x="138" y="445" />
			<point x="138" y="359" type="curve"/>
		</contour>
	</outline>
</glyph>
<glyph name="J" format="1" >
	<unicode hex="00004A"/>
	<advance width="374"/>
	<outline>
		<contour>
			<point x="47" y="628" type="line"/>
			<point x="149" y="617" type="line"/>
			<point x="153" y="169" />
			<point x="158" y="67" />
			<point x="158" y="7" type="curve"/>
			<point x="158" y="-51" />
			<point x="148" y="-87" />
			<point x="119" y="-115" type="curve"/>
			<point x="94" y="-95" type="line"/>
			<point x="65" y="-73" />
			<point x="44" y="-64" />
			<point x="19" y="-64" type="curve"/>
			<point x="-13" y="-64" />
			<point x="-37" y="-77" />
			<point x="-43" y="-114" type="curve"/>
			<point x="-33" y="-152" />
			<point x="6" y="-163" />
			<point x="44" y="-163" type="curve"/>
			<point x="128" y="-163" />
			<point x="212" y="-114" />
			<point x="232" y="-14" type="curve"/>
			<point x="243" y="37" />
			<point x="246" y="90" />
			<point x="246" y="204" type="curve"/>
			<point x="246" y="360" type="line"/>
			<point x="246" y="447" />
			<point x="246" y="533" />
			<point x="248" y="617" type="curve"/>
			<point x="340" y="628" type="line"/>
			<point x="340" y="669" type="line"/>
			<point x="47" y="669" type="line"/>
		</contour>
	</outline>
</glyph>
<glyph name="M" format="1" >
	<unicode hex="00004D"/>
	<advance width="902"/>
	<outline>
		<contour>
			<point x="39" y="0" type="line"/>
			<point x="263" y="0" type="line"/>
			<point x="263" y="41" type="line"/>
			<point x="181" y="54" type="line"/>
			<point x="181" y="369" type="line"/>
			<point x="181" y="372" />
			<point x="178" y="474" />
			<point x="175" y="558" type="curve"/>
			<point x="404" y="0" type="line"/>
			<point x="454" y="0" type="line"/>
			<point x="671" y="558" type="line"/>
			<point x="671" y="309" type="line"/>
			<point x="671" y="223" />
			<point x="671" y="136" />
			<point x="669" y="52" type="curve"/>
			<point x="585" y="41" type="line"/>
			<point x="585" y="0" type="line"/>
			<point x="857" y="0" type="line"/>
			<point x="857" y="41" type="line"/>
			<point x="765" y="52" type="line"/>
			<point x="763" y="138" />
			<point x="763" y="224" />
			<point x="763" y="310" type="curve"/>
			<point x="763" y="359" type="line"/>
			<point x="763" y="446" />
			<point x="763" y="533" />
			<point x="765" y="617" type="curve"/>
			<point x="857" y="628" type="line"/>
			<point x="857" y="669" type="line"/>
			<point x="660" y="669" type="line"/>
			<point x="448" y="119" type="line"/>
			<point x="224" y="669" type="line"/>
			<point x="39" y="669" type="line"/>
			<point x="39" y="628" type="line"/>
			<point x="129" y="617" type="line"/>
			<point x="129" y="54" type="line"/>
			<point x="39" y="41" type="line"/>
		</contour>
	</outline>
</glyph>
<glyph name="P" format="1" >
	<unicode hex="000050"/>
	<advance width="589"/>
	<outline>
		<contour>
			<point x="138" y="310" type="line"/>
			<point x="138" y="223" />
			<point x="138" y="136" />
			<point x="136" y="52" type="curve"/>
			<point x="44" y="41" type="line"/>
			<point x="44" y="0" type="line"/>
			<point x="328" y="0" type="line"/>
			<point x="328" y="41" type="line"/>
			<point x="235" y="52" type="line"/>
			<point x="233" y="124" />
			<point x="233" y="192" />
			<point x="233" y="264" type="curve"/>
			<point x="285" y="264" type="line"/>
			<point x="490" y="264" />
			<point x="567" y="358" />
			<point x="567" y="470" type="curve"/>
			<point x="567" y="587" />
			<point x="482" y="669" />
			<point x="313" y="669" type="curve"/>
			<point x="44" y="669" type="line"/>
			<point x="44" y="628" type="line"/>
			<point x="136" y="617" type="line"/>
			<point x="138" y="531" />
			<point x="138" y="445" />
			<point x="138" y="359" type="curve"/>
		</contour>
		<contour>
			<point x="233" y="359" type="line"/>
			<point x="233" y="448" />
			<point x="233" y="537" />
			<point x="235" y="623" type="curve"/>
			<point x="295" y="623" type="line"/>
			<point x="415" y="623" />
			<point x="468" y="567" />
			<point x="468" y="470" type="curve"/>
			<point x="468" y="376" />
			<point x="420" y="311" />
			<point x="299" y="311" type="curve"/>
			<point x="233" y="311" type="line"/>
		</contour>
	</outline>
</glyph>
<glyph name="Q" format="1" >
	<unicode hex="000051"/>
	<advance width="707"/>
	<outline>
		<contour>
			<point x="500" y="-216" type="curve"/>
			<point x="541" y="-216" />
			<point x="589" y="-206" />
			<point x="623" y="-184" type="curve"/>
			<point x="612" y="-148" type="line"/>
			<point x="580" y="-157" />
			<point x="554" y="-160" />
			<point x="534" y="-160" type="curve"/>
			<point x="451" y="-160" />
			<point x="399" y="-107" />
			<point x="396" y="-12" type="curve"/>
			<point x="535" y="9" />
			<point x="660" y="135" />
			<point x="660" y="335" type="curve"/>
			<point x="660" y="563" />
			<point x="508" y="684" />
			<point x="354" y="684" type="curve"/>
			<point x="199" y="684" />
			<point x="47" y="554" />
			<point x="47" y="335" type="curve"/>
			<point x="47" y="132" />
			<point x="166" y="13" />
			<point x="302" y="-10" type="curve"/>
			<point x="302" y="-118" />
			<point x="373" y="-216" />
		</contour>
		<contour>
			<point x="156" y="335" type="curve"/>
			<point x="156" y="485" />
			<point x="215" y="634" />
			<point x="354" y="634" type="curve"/>
			<point x="493" y="634" />
			<point x="550" y="485" />
			<point x="550" y="335" type="curve"/>
			<point x="550" y="184" />
			<point x="493" y="35" />
			<point x="354" y="35" type="curve"/>
			<point x="215" y="35" />
			<point x="156" y="184" />
		</contour>
	</outline>
</glyph>
<glyph name="S" format="1" >
	<unicode hex="000053"/>
	<advance width="512"/>
	<outline>
		<contour>
			<point x="232" y="35" type="curve"/>
			<point x="189" y="35" />
			<point x="159" y="43" />
			<point x="128" y="60" type="curve"/>
			<point x="108" y="178" type="line"/>
			<point x="46" y="178" type="line"/>
			<point x="40" y="38" type="line"/>
			<point x="86" y="8" />
			<point x="160" y="-15" />
			<point x="235" y="-15" type="curve"/>
			<point x="374" y="-15" />
			<point x="472" y="57" />
			<point x="472" y="175" type="curve"/>
			<point x="472" y="270" />
			<point x="421" y="328" />
			<point x="290" y="379" type="curve"/>
			<point x="250" y="394" type="line"/>
			<point x="178" y="422" />
			<point x="137" y="459" />
			<point x="137" y="521" type="curve"/>
			<point x="137" y="595" />
			<point x="196" y="634" />
			<point x="272" y="634" type="curve"/>
			<point x="303" y="634" />
			<point x="328" y="628" />
			<point x="354" y="614" type="curve"/>
			<point x="375" y="501" type="line"/>
			<point x="436" y="501" type="line"/>
			<point x="442" y="632" type="line"/>
			<point x="399" y="664" />
			<point x="345" y="684" />
			<point x="278" y="684" type="curve"/>
			<point x="150" y="684" />
			<point x="53" y="614" />
			<point x="53" y="499" type="curve"/>
			<point x="53" y="397" />
			<point x="122" y="338" />
			<point x="225" y="298" type="curve"/>
			<point x="264" y="282" type="line"/>
			<point x="349" y="249" />
			<point x="387" y="220" />
			<point x="387" y="156" type="curve"/>
			<point x="387" y="79" />
			<point x="326" y="35" />
		</contour>
	</outline>
</glyph>
<glyph name="T" format="1" >
	<unicode hex="000054"/>
	<advance width="604"/>
	<outline>
		<contour>
			<point x="255" y="310" type="line"/>
			<point x="255" y="223" />
			<point x="255" y="137" />
			<point x="253" y="52" type="curve"/>
			<point x="151" y="41" type="line"/>
			<point x="151" y="0" type="line"/>
			<point x="453" y="0" type="line"/>
			<point x="453" y="41" type="line"/>
			<point x="351" y="52" type="line"/>
			<point x="349" y="138" />
			<point x="349" y="224" />
			<point x="349" y="310" type="curve"/>
			<point x="349" y="359" type="line"/>
			<point x="349" y="447" />
			<point x="349" y="534" />
			<point x="351" y="619" type="curve"/>
			<point x="504" y="619" type="line"/>
			<point x="526" y="491" type="line"/>
			<point x="584" y="491" type="line"/>
			<point x="576" y="669" type="line"/>
			<point x="28" y="669" type="line"/>
			<point x="20" y="491" type="line"/>
			<point x="78" y="491" type="line"/>
			<point x="100" y="619" type="line"/>
			<point x="253" y="619" type="line"/>
			<point x="255" y="532" />
			<point x="255" y="445" />
			<point x="255" y="359" type="curve"/>
		</contour>
	</outline>
</glyph>
<glyph name="V" format="1" >
	<unicode hex="000056"/>
	<advance width="674"/>
	<outline>
		<contour>
			<point x="323" y="-7" type="line"/>
			<point x="367" y="-7" type="line"/>
			<point x="578" y="616" type="line"/>
			<point x="665" y="628" type="line"/>
			<point x="665" y="669" type="line"/>
			<point x="434" y="669" type="line"/>
			<point x="434" y="624" type="line"/>
			<point x="523" y="614" type="line"/>
			<point x="360" y="135" type="line"/>
			<point x="192" y="615" type="line"/>
			<point x="288" y="624" type="line"/>
			<point x="288" y="669" type="line"/>
			<point x="15" y="669" type="line"/>
			<point x="15" y="628" type="line"/>
			<point x="90" y="619" type="line"/>
		</contour>
	</outline>
</glyph>
<glyph name="W" format="1" >
	<unicode hex="000057"/>
	<advance width="962"/>
	<outline>
		<contour>
			<point x="657" y="-7" type="line"/>
			<point x="700" y="-7" type="line"/>
			<point x="869" y="616" type="line"/>
			<point x="953" y="628" type="line"/>
			<point x="953" y="669" type="line"/>
			<point x="726" y="669" type="line"/>
			<point x="726" y="628" type="line"/>
			<point x="817" y="615" type="line"/>
			<point x="689" y="153" type="line"/>
			<point x="541" y="616" type="line"/>
			<point x="642" y="628" type="line"/>
			<point x="642" y="669" type="line"/>
			<point x="370" y="669" type="line"/>
			<point x="370" y="628" type="line"/>
			<point x="471" y="616" type="line"/>
			<point x="318" y="158" type="line"/>
			<point x="195" y="617" type="line"/>
			<point x="287" y="628" type="line"/>
			<point x="287" y="669" type="line"/>
			<point x="15" y="669" type="line"/>
			<point x="15" y="628" type="line"/>
			<point x="98" y="618" type="line"/>
			<point x="278" y="-7" type="line"/>
			<point x="321" y="-7" type="line"/>
			<point x="484" y="511" type="line"/>
		</contour>
	</outline>
</glyph>
<glyph name="b" format="1" >
	<unicode hex="000062"/>
	<advance width="577"/>
	<outline>
		<contour>
			<point x="30" y="0" type="line"/>
			<point x="180" y="-10" type="line"/>
			<point x="188" y="57" type="line"/>
			<point x="231" y="3" />
			<point x="279" y="-13" />
			<point x="326" y="-13" type="curve"/>
			<point x="443" y="-13" />
			<point x="532" y="88" />
			<point x="532" y="242" type="curve"/>
			<point x="532" y="397" />
			<point x="448" y="488" />
			<point x="342" y="488" type="curve"/>
			<point x="287" y="488" />
			<point x="236" y="464" />
			<point x="188" y="411" type="curve"/>
			<point x="188" y="589" type="line"/>
			<point x="192" y="731" type="line"/>
			<point x="178" y="739" type="line"/>
			<point x="25" y="694" type="line"/>
			<point x="25" y="659" type="line"/>
			<point x="107" y="649" type="line"/>
			<point x="107" y="210" type="line"/>
			<point x="107" y="166" />
			<point x="106" y="100" />
			<point x="105" y="50" type="curve"/>
			<point x="30" y="36" type="line"/>
		</contour>
		<contour>
			<point x="310" y="44" type="curve"/>
			<point x="273" y="44" />
			<point x="232" y="60" />
			<point x="191" y="99" type="curve"/>
			<point x="191" y="373" type="line"/>
			<point x="245" y="418" />
			<point x="284" y="431" />
			<point x="315" y="431" type="curve"/>
			<point x="390" y="431" />
			<point x="442" y="362" />
			<point x="442" y="234" type="curve"/>
			<point x="442" y="105" />
			<point x="381" y="44" />
		</contour>
	</outline>
</glyph>
<glyph name="d" format="1" >
	<unicode hex="000064"/>
	<advance width="567"/>
	<outline>
		<contour>
			<point x="135" y="235" type="curve"/>
			<point x="135" y="371" />
			<point x="199" y="431" />
			<point x="273" y="431" type="curve"/>
			<point x="306" y="431" />
			<point x="340" y="419" />
			<point x="386" y="379" type="curve"/>
			<point x="386" y="102" type="line"/>
			<point x="349" y="60" />
			<point x="318" y="44" />
			<point x="274" y="44" type="curve"/>
			<point x="194" y="44" />
			<point x="135" y="104" />
		</contour>
		<contour>
			<point x="396" y="-10" type="line"/>
			<point x="551" y="0" type="line"/>
			<point x="551" y="36" type="line"/>
			<point x="470" y="49" type="line"/>
			<point x="470" y="589" type="line"/>
			<point x="474" y="731" type="line"/>
			<point x="460" y="739" type="line"/>
			<point x="304" y="694" type="line"/>
			<point x="304" y="659" type="line"/>
			<point x="389" y="649" type="line"/>
			<point x="389" y="423" type="line"/>
			<point x="348" y="471" />
			<point x="306" y="488" />
			<point x="258" y="488" type="curve"/>
			<point x="136" y="488" />
			<point x="45" y="386" />
			<point x="45" y="233" type="curve"/>
			<point x="45" y="87" />
			<point x="127" y="-13" />
			<point x="249" y="-13" type="curve"/>
			<point x="311" y="-13" />
			<point x="354" y="13" />
			<point x="389" y="60" type="curve"/>
		</contour>
	</outline>
</glyph>
<glyph name="f" format="1" >
	<unicode hex="000066"/>
	<advance width="354"/>
	<outline>
		<contour>
			<point x="117" y="210" type="line"/>
			<point x="117" y="157" />
			<point x="116" y="103" />
			<point x="115" y="50" type="curve"/>
			<point x="36" y="36" type="line"/>
			<point x="36" y="0" type="line"/>
			<point x="294" y="0" type="line"/>
			<point x="294" y="36" type="line"/>
			<point x="204" y="51" type="line"/>
			<point x="203" y="104" />
			<point x="202" y="157" />
			<point x="202" y="210" type="curve"/>
			<point x="202" y="422" type="line"/>
			<point x="338" y="422" type="line"/>
			<point x="338" y="475" type="line"/>
			<point x="200" y="475" type="line"/>
			<point x="197" y="571" />
			<point x="211" y="628" />
			<point x="231" y="664" type="curve"/>
			<point x="240" y="679" />
			<point x="252" y="692" />
			<point x="265" y="702" type="curve"/>
			<point x="293" y="680" type="line"/>
			<point x="317" y="660" />
			<point x="340" y="650" />
			<point x="365" y="650" type="curve"/>
			<point x="402" y="650" />
			<point x="424" y="669" />
			<point x="426" y="695" type="curve"/>
			<point x="416" y="734" />
			<point x="377" y="749" />
			<point x="330" y="749" type="curve"/>
			<point x="284" y="749" />
			<point x="233" y="735" />
			<point x="189" y="688" type="curve"/>
			<point x="146" y="642" />
			<point x="128" y="584" />
			<point x="118" y="477" type="curve"/>
			<point x="34" y="466" type="line"/>
			<point x="34" y="422" type="line"/>
			<point x="117" y="422" type="line"/>
		</contour>
	</outline>
</glyph>
<glyph name="l" format="1" >
	<unicode hex="00006C"/>
	<advance width="298"/>
	<outline>
		<contour>
			<point x="25" y="694" type="line"/>
			<point x="25" y="659" type="line"/>
			<point x="107" y="649" type="line"/>
			<point x="107" y="210" type="line"/>
			<point x="107" y="157" />
			<point x="106" y="104" />
			<point x="105" y="50" type="curve"/>
			<point x="25" y="36" type="line"/>
			<point x="25" y="0" type="line"/>
			<point x="273" y="0" type="line"/>
			<point x="273" y="36" type="line"/>
			<point x="193" y="50" type="line"/>
			<point x="192" y="103" />
			<point x="191" y="157" />
			<point x="191" y="210" type="curve"/>
			<point x="191" y="589" type="line"/>
			<point x="195" y="731" type="line"/>
			<point x="181" y="739" type="line"/>
		</contour>
	</outline>
</glyph>
<glyph name="m" format="1" >
	<unicode hex="00006D"/>
	<advance width="901"/>
	<outline>
		<contour>
			<point x="372" y="488" type="curve"/>
			<point x="311" y="488" />
			<point x="245" y="451" />
			<point x="197" y="398" type="curve"/>
			<point x="189" y="478" type="line"/>
			<point x="174" y="488" type="line"/>
			<point x="34" y="427" type="line"/>
			<point x="34" y="392" type="line"/>
			<point x="113" y="383" type="line"/>
			<point x="115" y="343" />
			<point x="116" y="313" />
			<point x="116" y="258" type="curve"/>
			<point x="116" y="210" type="line"/>
			<point x="116" y="165" />
			<point x="115" y="100" />
			<point x="114" y="50" type="curve"/>
			<point x="40" y="36" type="line"/>
			<point x="40" y="0" type="line"/>
			<point x="272" y="0" type="line"/>
			<point x="272" y="36" type="line"/>
			<point x="203" y="50" type="line"/>
			<point x="202" y="100" />
			<point x="201" y="166" />
			<point x="201" y="210" type="curve"/>
			<point x="201" y="356" type="line"/>
			<point x="250" y="398" />
			<point x="288" y="416" />
			<point x="334" y="416" type="curve"/>
			<point x="393" y="416" />
			<point x="416" y="386" />
			<point x="416" y="295" type="curve"/>
			<point x="416" y="210" type="line"/>
			<point x="416" y="164" />
			<point x="415" y="99" />
			<point x="414" y="50" type="curve"/>
			<point x="340" y="36" type="line"/>
			<point x="340" y="0" type="line"/>
			<point x="572" y="0" type="line"/>
			<point x="572" y="36" type="line"/>
			<point x="502" y="50" type="line"/>
			<point x="501" y="100" />
			<point x="500" y="164" />
			<point x="500" y="210" type="curve"/>
			<point x="500" y="303" type="line"/>
			<point x="500" y="321" />
			<point x="499" y="338" />
			<point x="498" y="353" type="curve"/>
			<point x="549" y="399" />
			<point x="590" y="416" />
			<point x="632" y="416" type="curve"/>
			<point x="690" y="416" />
			<point x="716" y="390" />
			<point x="716" y="297" type="curve"/>
			<point x="716" y="210" type="line"/>
			<point x="716" y="164" />
			<point x="715" y="99" />
			<point x="714" y="50" type="curve"/>
			<point x="640" y="36" type="line"/>
			<point x="640" y="0" type="line"/>
			<point x="872" y="0" type="line"/>
			<point x="872" y="36" type="line"/>
			<point x="802" y="50" type="line"/>
			<point x="801" y="100" />
			<point x="800" y="164" />
			<point x="800" y="210" type="curve"/>
			<point x="800" y="313" type="line"/>
			<point x="800" y="437" />
			<point x="753" y="488" />
			<point x="672" y="488" type="curve"/>
			<point x="608" y="488" />
			<point x="542" y="457" />
			<point x="490" y="394" type="curve"/>
			<point x="474" y="460" />
			<point x="435" y="488" />
		</contour>
	</outline>
</glyph>
<glyph name="p" format="1" >
	<unicode hex="000070"/>
	<advance width="583"/>
	<outline>
		<contour>
			<point x="448" y="231" type="curve"/>
			<point x="448" y="102" />
			<point x="387" y="44" />
			<point x="312" y="44" type="curve"/>
			<point x="275" y="44" />
			<point x="239" y="59" />
			<point x="202" y="95" type="curve"/>
			<point x="202" y="376" type="line"/>
			<point x="253" y="418" />
			<point x="292" y="431" />
			<point x="323" y="431" type="curve"/>
			<point x="396" y="431" />
			<point x="448" y="359" />
		</contour>
		<contour>
			<point x="117" y="-28" type="line"/>
			<point x="117" y="-82" />
			<point x="116" y="-135" />
			<point x="115" y="-190" type="curve"/>
			<point x="35" y="-204" type="line"/>
			<point x="35" y="-239" type="line"/>
			<point x="292" y="-239" type="line"/>
			<point x="292" y="-204" type="line"/>
			<point x="201" y="-189" type="line"/>
			<point x="200" y="-134" />
			<point x="199" y="-80" />
			<point x="199" y="-27" type="curve"/>
			<point x="199" y="53" type="line"/>
			<point x="241" y="3" />
			<point x="286" y="-13" />
			<point x="332" y="-13" type="curve"/>
			<point x="449" y="-13" />
			<point x="538" y="85" />
			<point x="538" y="239" type="curve"/>
			<point x="538" y="394" />
			<point x="454" y="488" />
			<point x="347" y="488" type="curve"/>
			<point x="294" y="488" />
			<point x="243" y="465" />
			<point x="196" y="414" type="curve"/>
			<point x="190" y="478" type="line"/>
			<point x="175" y="488" type="line"/>
			<point x="35" y="427" type="line"/>
			<point x="35" y="392" type="line"/>
			<point x="114" y="383" type="line"/>
			<point x="116" y="343" />
			<point x="117" y="313" />
			<point x="117" y="258" type="curve"/>
		</contour>
	</outline>
</glyph>
<glyph name="u" format="1" >
	<unicode hex="000075"/>
	<advance width="583"/>
	<outline>
		<contour>
			<point x="549" y="0" type="line"/>
			<point x="549" y="36" type="line"/>
			<point x="481" y="50" type="line"/>
			<point x="481" y="331" type="line"/>
			<point x="484" y="471" type="line"/>
			<point x="474" y="481" type="line"/>
			<point x="329" y="467" type="line"/>
			<point x="329" y="431" type="line"/>
			<point x="400" y="416" type="line"/>
			<point x="397" y="123" type="line"/>
			<point x="351" y="80" />
			<point x="303" y="58" />
			<point x="257" y="58" type="curve"/>
			<point x="203" y="58" />
			<point x="177" y="89" />
			<point x="177" y="176" type="curve"/>
			<point x="177" y="331" type="line"/>
			<point x="182" y="471" type="line"/>
			<point x="172" y="481" type="line"/>
			<point x="25" y="467" type="line"/>
			<point x="25" y="431" type="line"/>
			<point x="96" y="416" type="line"/>
			<point x="93" y="167" type="line"/>
			<point x="92" y="35" />
			<point x="142" y="-13" />
			<point x="223" y="-13" type="curve"/>
			<point x="283" y="-13" />
			<point x="346" y="15" />
			<point x="400" y="81" type="curve"/>
			<point x="410" y="-8" type="line"/>
		</contour>
	</outline>
</glyph>
<glyph name="x" format="1" >
	<unicode hex="000078"/>
	<advance width="526"/>
	<outline>
		<contour>
			<point x="210" y="36" type="line"/>
			<point x="135" y="49" type="line"/>
			<point x="245" y="192" type="line"/>
			<point x="343" y="49" type="line"/>
			<point x="272" y="36" type="line"/>
			<point x="272" y="0" type="line"/>
			<point x="516" y="0" type="line"/>
			<point x="516" y="36" type="line"/>
			<point x="440" y="50" type="line"/>
			<point x="301" y="249" type="line"/>
			<point x="444" y="425" type="line"/>
			<point x="503" y="436" type="line"/>
			<point x="503" y="475" type="line"/>
			<point x="316" y="475" type="line"/>
			<point x="316" y="436" type="line"/>
			<point x="382" y="423" type="line"/>
			<point x="275" y="286" type="line"/>
			<point x="179" y="425" type="line"/>
			<point x="240" y="436" type="line"/>
			<point x="240" y="475" type="line"/>
			<point x="17" y="475" type="line"/>
			<point x="17" y="436" type="line"/>
			<point x="86" y="425" type="line"/>
			<point x="220" y="229" type="line"/>
			<point x="74" y="48" type="line"/>
			<point x="10" y="36" type="line"/>
			<point x="10" y="0" type="line"/>
			<point x="210" y="0" type="line"/>
		</contour>
	</outline>
</glyph>
